<svg id="Layer_2" data-name="Layer 2" xmlns="http://www.w3.org/2000/svg" viewBox="0 0 590.16 170.51"><title>Nirmaana_logo_black</title><path d="M39,30.3q2.65-3.14,5.63-3.15H76.77q5.46,0,5.46,5.79v70.69q0,5.8-5.13,5.79H53.43V91.72h5.79q3.81,0,3.81-2.81V47.35q0-3.14-3.48-3.15H51.77A5.36,5.36,0,0,0,47.63,46L41.34,53.1h6.13q2.32,0,2.32,5.13v44.54a5.73,5.73,0,0,1-2.65,4.64,8.81,8.81,0,0,1-5.3,2H5.74q-5.63,0-5.63-5.3V51H17.33v7.28q1,1.49,2.32-.5l4.64-7q.33-6.62-4.14-6.62H.28V27.1H28.76q3.31,0,4.8,1.82a39.85,39.85,0,0,1,2.65,4.64ZM27.93,73.68l-6.62,7.78q-1.33,1.66-2.81.66v7.12q0,2.48,2.15,2.48h8.61q2.48,0,2.48-4.8V73.67Z" transform="translate(0)"/><path d="M.28,11.59A7.53,7.53,0,0,1,3.09,5.8,8.72,8.72,0,0,1,8.88,3.32H72.62a10.4,10.4,0,0,1,6.71,2.19,6.65,6.65,0,0,1,2.73,5.38V25.68h-19V21.33q0-2.44-3.15-2.44H22.8a4.36,4.36,0,0,0-2.57.5,2.88,2.88,0,0,0-.58,2.15v4.14H.28Z" transform="translate(0)"/><path d="M91.16,36.26q0-4.47,6.79-9.27L131.9,3.1H160l-33.77,24H148a9.22,9.22,0,0,1,6.54,2.57A8.39,8.39,0,0,1,157.23,36v67.21q0,6.13-6.79,6.13H97.63q-6.46,0-6.46-7Zm19.2-17.88q-5.63,4-11.26,7.78-7.45,5.8-7.62,9.27V0h18.87Zm.5,67q0,6.29,3.15,6.29h20.36q2.81,0,3.48-1.66a14.85,14.85,0,0,0,.33-4.3V47.84q0-3.64-4.64-3.64H115q-2.82,0-3.48,1a6.61,6.61,0,0,0-.66,3.48Z" transform="translate(0)"/><path d="M186.53,84.76V88.4q0,3,2.81,3h31q2.81,0,2.81-3.31V29.8q0-5-7.12-5H166.16V5.63h65.56a12.3,12.3,0,0,1,7.62,2.65q4.14,2.82,4.14,7.12v86.7a7.17,7.17,0,0,1-2.07,4.8,5.8,5.8,0,0,1-4.22,2.32H173a7.69,7.69,0,0,1-4.64-1.57,4.81,4.81,0,0,1-2.15-4.06V42.22a9.37,9.37,0,0,1,2.4-6q2.4-2.89,5.21-2.9H208.7a7,7,0,0,1,4.88,1.9,6.16,6.16,0,0,1,2.07,4.72V78.35A6.92,6.92,0,0,1,214,82.74a4.68,4.68,0,0,1-3.64,2.07Zm7.28-16.06q2.81,0,2.81-3.48V55.45q0-2.32-2.65-2.32h-4.64q-2.82,0-2.81,2.32V68.7Z" transform="translate(0)"/><path d="M276.42,26.82q5.46,0,5.46,7.45v68.54q0,6.29-6.79,6.29h-23V91.39h7.78q2,0,2.48-1.16a11.3,11.3,0,0,0,.33-3.64V46.69q0-2.81-3-2.81h-7.62V26.82Z" transform="translate(0)"/><path d="M290.66,87.25l5.5-7.15q-1.82-.5-2.32-3.31a51.47,51.47,0,0,1-.33-7.62V33.61a6,6,0,0,1,2.24-4.72,7.58,7.58,0,0,1,5-1.9h28.48l12.58-19.7H360L346.94,26.66q2.81.5,5.13,5.3a17.66,17.66,0,0,1,2.15-3.64Q355.54,27,358.69,27H366a5.37,5.37,0,0,1,4,1.49q.5.66,2.32,4a14.74,14.74,0,0,1,2.65-4A6.32,6.32,0,0,1,379.59,27h20.2q8.44,0,8.44,8.61v65.23q0,8.44-8.44,8.44H358V91.55h29q2.81,0,3.39-1a7.93,7.93,0,0,0,.58-3.64V47.68q0-2.65-.5-3.23c-.33-.39-1.22-.58-2.65-.58h-4.8q-3.15,0-3.15,3.64V79.3h-16.4V48q0-4.14-3.48-4.14h-2.81q-3.48,0-3.48,3.48v50a14,14,0,0,1-2.48,8.53,7.51,7.51,0,0,1-6.29,3.39H305.56q-5,0-6.29-1.49-.66-.83-.66-4.8,0-2.15-2.65-2.15l-5.3,5.13ZM319.3,43.87h-4.64q-4.14,0-4.14,3.81v9.27Zm15.89,3L321.62,68.7h7.62V84.1H312.68l-1.82,3.15q0,4.31,4.63,4.3h16.72q3,0,3-4.3Z" transform="translate(0)"/><path d="M53.65,145.23a3.81,3.81,0,0,1-.2,1.21,10,10,0,0,1-.5,1.22,11.5,11.5,0,0,1-.68,1.2L51.55,150a28.4,28.4,0,0,1-2.14,2.88q-1.23,1.46-2.62,2.85t-2.88,2.61A34.55,34.55,0,0,1,41,160.49l-2.15,1.41A16.08,16.08,0,0,1,36.81,163a12.52,12.52,0,0,1-2.17.75,10.19,10.19,0,0,1-2.48.32,6.54,6.54,0,0,1-4.24-1.32,6.1,6.1,0,0,1-1.43-1.71,13.72,13.72,0,0,1-1.07-2.34,24.35,24.35,0,0,1-.79-2.73q-.33-1.44-.55-2.86-.28-1.76-.53-3.16a16.16,16.16,0,0,0-.58-2.36,4.22,4.22,0,0,0-.81-1.52,1.58,1.58,0,0,0-1.23-.52,4.91,4.91,0,0,0-1.13.13,3.56,3.56,0,0,0-1.12.5,8.06,8.06,0,0,0-1.27,1.07q-.69.69-1.62,1.82t-2.12,2.77q-1.19,1.63-2.8,3.9-.79,1.1-1.85,2.42T6.84,160.7a26.81,26.81,0,0,1-2.18,2.11A5.67,5.67,0,0,1,2.77,164Q0,163.37,0,157.09A50.49,50.49,0,0,1,.38,152q.19-1.54.44-3.22t.63-3.36q.38-1.68.86-3.27a20.21,20.21,0,0,1,1.15-2.94,4,4,0,0,1,.66-1,2.48,2.48,0,0,1,.71-.54,2.39,2.39,0,0,1,.75-.22,6.36,6.36,0,0,1,.8,0q.5,0,.9.69a3.92,3.92,0,0,1,.39,1.92,7.57,7.57,0,0,1-.13,1.41,11.75,11.75,0,0,1-.35,1.35l-.47,1.49q-.25.8-.5,1.84l-.42,1.88q-.24,1-.44,2.11T5,152.26a13.52,13.52,0,0,0-.14,1.84,3.85,3.85,0,0,0,.19,1.16q.88-.09,2.89-2.64l2.28-2.83q1.24-1.54,2.69-3.39Q14,145,15,143.82a16.94,16.94,0,0,1,2.18-2.09,9.84,9.84,0,0,1,2.4-1.41,7.39,7.39,0,0,1,2.81-.52,4.89,4.89,0,0,1,2.72.71,5.17,5.17,0,0,1,1.74,2,11.2,11.2,0,0,1,1,3q.36,1.73.58,3.8.19,1.76.36,3.49a12.59,12.59,0,0,0,.68,3.1A5.43,5.43,0,0,0,31,158.06a3.9,3.9,0,0,0,2.7.85,7.21,7.21,0,0,0,2.83-.63,18.2,18.2,0,0,0,3.11-1.74A37.77,37.77,0,0,0,43,153.92q1.74-1.51,3.6-3.3a20.21,20.21,0,0,0,1.58-1.82q.86-1.05,1.7-2a22.57,22.57,0,0,1,1.56-1.67,2,2,0,0,1,1.16-.69,1.79,1.79,0,0,1,.61.19A.65.65,0,0,1,53.65,145.23Z" transform="translate(0)"/><path d="M82.57,147.25A3.75,3.75,0,0,1,82,149a22.6,22.6,0,0,1-1.67,2.56q-1.05,1.43-2.45,3.06t-2.94,3.27q-1.76,1.89-3.72,3.63T67,164.94q-4.4,3.27-7.86,3.27a7.24,7.24,0,0,1-5.91-2.54,14.21,14.21,0,0,1-2.86-6.22,36.37,36.37,0,0,1-.75-7.45q0-1.6.38-5,.19-1.7.38-2.92a15.85,15.85,0,0,1,.41-2,5.11,5.11,0,0,1,1.85-2.58,4.76,4.76,0,0,1,3-1.16q.85,0,.85,1.6a16.35,16.35,0,0,1-.2,2.42q-.21,1.35-.42,2.67-.41,2.48-.6,4.45t-.19,3.41A24.35,24.35,0,0,0,56,159.3q.88,3.3,3.17,3.3a11.57,11.57,0,0,0,5.41-1.7q1.54-.88,3.08-2a37.81,37.81,0,0,0,3.08-2.39q1.57-1.32,3-2.65t2.83-2.75q1.38-1.42,2.48-2.64t1.92-2.26l.11-.2a2.6,2.6,0,0,1,.17-.28,1.5,1.5,0,0,1,.19-.24.18.18,0,0,1,.19-.06q.44,0,.66.69A2.89,2.89,0,0,1,82.57,147.25ZM62,121.7a5.71,5.71,0,0,1-1.07,3.49,3.52,3.52,0,0,1-3,1.45,11.83,11.83,0,0,1-2.8-.38q-1.51-.38-1.51-1.23a5.11,5.11,0,0,1,1-2.94,8.21,8.21,0,0,1,2.31-2.28,3.92,3.92,0,0,1,1.41-.63,6.3,6.3,0,0,1,2.77.49,2,2,0,0,1,.89,2Z" transform="translate(0)"/><path d="M108.56,142.34v.55a3,3,0,0,1-.16.72,3.28,3.28,0,0,1-.3.64.52.52,0,0,1-.46.28h-3.12a14.89,14.89,0,0,0-10,4.4,33.65,33.65,0,0,0-6.79,10.5q-.54,1.35-1,2.8t-1,3a13.71,13.71,0,0,0-.36,1.56,9.25,9.25,0,0,1-.36,1.43q-.06.25-.53.49a7.64,7.64,0,0,1-1,.43q-.58.19-1.12.31a4.06,4.06,0,0,1-.72.13q-2.17.13-2.45-4.49-.09-1.26-.08-2.28t.08-2q.06-1,.17-2t.24-2.37q.16-1.63.38-3.77t.5-4.31q.28-2.17.6-4.13a33,33,0,0,1,.66-3.25,5.26,5.26,0,0,1,1-2.2,2.41,2.41,0,0,1,1.81-.79,1.58,1.58,0,0,1,.68.17,2.56,2.56,0,0,1,.66.46,3.28,3.28,0,0,1,.5.6,1.4,1.4,0,0,1,.24.57,16.21,16.21,0,0,1,0,1.71q-.06.93-.22,1.92t-.38,2q-.22,1-.44,1.92-.44,1.79-.68,3.06c-.16.85-.29,1.67-.39,2.47s-.21,1.65-.31,2.56-.24,2-.41,3.38q.53-1.2.93-2t.71-1.49c.21-.43.4-.81.58-1.15s.37-.69.58-1l.69-1.21.94-1.6a26.87,26.87,0,0,1,4.71-6A17.77,17.77,0,0,1,97.68,141a12.31,12.31,0,0,1,4.34-1.35,13.24,13.24,0,0,1,2,.09,10.53,10.53,0,0,1,2.17.47,6.26,6.26,0,0,1,1.78.9A1.63,1.63,0,0,1,108.56,142.34Z" transform="translate(0)"/><path d="M181.16,145.8a3.14,3.14,0,0,1-.11.72q-.11.44-.28.94a9.55,9.55,0,0,1-.41,1,5.87,5.87,0,0,1-.52.93,22.09,22.09,0,0,1-1.4,1.89q-.87,1.07-1.9,2.21a30.85,30.85,0,0,1-2.22,2.29q-1.22,1.14-2.31,2.09-.91.76-2.11,1.67a26.46,26.46,0,0,1-2.51,1.7,16.89,16.89,0,0,1-2.7,1.3,7.44,7.44,0,0,1-2.61.52,6,6,0,0,1-2-.31,3.82,3.82,0,0,1-1.63-1.18,7.92,7.92,0,0,1-1.3-2.37,21.82,21.82,0,0,1-1-3.9q-.19-1-.33-2.15l-.28-2.28c-.09-.76-.18-1.48-.27-2.19s-.18-1.32-.3-1.85a7,7,0,0,0-.38-1.27c-.14-.31-.29-.47-.46-.47a2.06,2.06,0,0,0-1.15.69,16.36,16.36,0,0,0-1.73,2q-1,1.3-2.17,3.13T146.61,155a67.21,67.21,0,0,1-4.31,6.88q-1.76,2.36-3.21,2.36a2.87,2.87,0,0,1-2.92-2,27.24,27.24,0,0,1-.85-7,38.49,38.49,0,0,0-.68-7.31q-.58-2.56-1.49-2.56a3,3,0,0,0-1.65,1,23.37,23.37,0,0,0-2.45,2.81q-1.37,1.79-3,4.23t-3.21,5.3l-1,1.73-1.15,2q-.58,1-1.13,1.87t-1,1.45a2.64,2.64,0,0,1-2.2,1.32,3.07,3.07,0,0,1-3.14-2.45l-.3-1a6.68,6.68,0,0,1-.25-1.65V160.8q0-1.26.08-2.31t.2-2.12q.13-1.07.31-2.29t.38-2.86q.16-1.35.28-2.89t.24-3q.11-1.46.22-2.69a12.43,12.43,0,0,1,.3-2,2.85,2.85,0,0,1,.44-.88,7,7,0,0,1,.8-1,6.14,6.14,0,0,1,1-.79,1.67,1.67,0,0,1,.88-.33,1.84,1.84,0,0,1,1.08.3,2.26,2.26,0,0,1,.69.8A3.83,3.83,0,0,1,120,140a8.7,8.7,0,0,1,.11,1.4,15.69,15.69,0,0,1-.14,1.88q-.14,1.13-.36,2.45t-.49,2.73q-.27,1.42-.52,2.7l-.46,2.37c-.14.72-.24,1.32-.3,1.78q-.28,1.73-.38,2.75a15.2,15.2,0,0,0-.09,1.65,13,13,0,0,0,1-1.22q.63-.82,1.38-1.92t1.59-2.42l1.68-2.7,1.34-2.2q.74-1.23,1.54-2.47t1.59-2.34q.79-1.1,1.45-1.86a10.4,10.4,0,0,1,2.73-2.29,6,6,0,0,1,3-.79,3.5,3.5,0,0,1,2.62,1.18,6.07,6.07,0,0,1,1.49,3.06,17.92,17.92,0,0,1,.3,2q.11,1.15.2,2.4t.17,2.51q.08,1.26.17,2.39a12.66,12.66,0,0,0,.27,1.82,6.81,6.81,0,0,0,.36,1.15,2.34,2.34,0,0,0,.35.6.39.39,0,0,0,.25.17q.6,0,2-2.48l1.6-2.8,2-3.39q1.07-1.83,2.29-3.52a35.79,35.79,0,0,1,2.4-3,15.68,15.68,0,0,1,2.22-2.07,3.19,3.19,0,0,1,1.76-.77,5.58,5.58,0,0,1,2,.37,3.78,3.78,0,0,1,.83.46,2,2,0,0,1,.55.58,5.31,5.31,0,0,1,.68,1.71,16.87,16.87,0,0,1,.3,2.2q.09,1.24.17,2.77t.27,3.38a19.2,19.2,0,0,0,1.37,5.86,2.89,2.89,0,0,0,2.66,1.93,4.38,4.38,0,0,0,1.67-.44,16.75,16.75,0,0,0,2.14-1.15q1.13-.71,2.29-1.6t2.17-1.78q1-.88,1.93-1.78l1.87-1.82,1.93-1.93,2.12-2.14a1,1,0,0,1,.69-.38Q181.16,145,181.16,145.8Z" transform="translate(0)"/><path d="M223.4,146.3a5.1,5.1,0,0,1-.09.9,8.16,8.16,0,0,1-.27,1,8.69,8.69,0,0,1-.38,1,3.43,3.43,0,0,1-.42.77q-.19.25-.55.68l-.8.93a11.94,11.94,0,0,1-1,1c-.39.36-.71.72-1.08,1q-2,1.79-3.82,3.47a31.36,31.36,0,0,1-3.85,3,19.78,19.78,0,0,1-4.13,2.06,13.24,13.24,0,0,1-4.67.74,6.87,6.87,0,0,1-2.34-.42,8.29,8.29,0,0,1-2.22-1.21,8.09,8.09,0,0,1-1.79-1.88,7.2,7.2,0,0,1-1-2.39l-1.92,2-2.09,2.06q-1.09,1.06-2.25,2a26.75,26.75,0,0,1-2.39,1.79q-.69.44-1.65.94t-2,.93a16.38,16.38,0,0,1-2.11.69,7.83,7.83,0,0,1-1.9.27,3.27,3.27,0,0,1-2.22-.8,6.66,6.66,0,0,1-1.54-2,10.06,10.06,0,0,1-.91-2.48,10.78,10.78,0,0,1-.3-2.36,15.94,15.94,0,0,1,.6-4.24,27,27,0,0,1,1.56-4.23,34.35,34.35,0,0,1,2.14-3.91q1.18-1.85,2.31-3.3a25.71,25.71,0,0,1,2.83-3,29,29,0,0,1,3.39-2.67,21.17,21.17,0,0,1,3.46-1.9,7.83,7.83,0,0,1,3-.72h1.4a13.44,13.44,0,0,1,1.46.08,10.57,10.57,0,0,1,1.41.25,4.48,4.48,0,0,1,1.26.52,2.88,2.88,0,0,1,.66.72,9.29,9.29,0,0,1,.71,1.2,10.14,10.14,0,0,1,.55,1.32,3.55,3.55,0,0,1,.22,1,11.12,11.12,0,0,1-.47,2.77q-.5,2.17-.93,3.94a15.71,15.71,0,0,0-.42,3.66,7.34,7.34,0,0,0,.35,2.18,7.13,7.13,0,0,0,1,2,5.45,5.45,0,0,0,1.57,1.49,3.84,3.84,0,0,0,2.09.58,10.6,10.6,0,0,0,3.93-.8,21.33,21.33,0,0,0,4.07-2.2,38.32,38.32,0,0,0,4.1-3.24q2-1.84,4-3.91l.55-.64c.26-.3.53-.61.82-.91s.56-.58.83-.82a1.17,1.17,0,0,1,.6-.36Q223.4,145,223.4,146.3Zm-28-2.61q0-.54-.06-1.32a2.61,2.61,0,0,0-.41-1.29,1,1,0,0,0-.85-.49h-1a6.57,6.57,0,0,0-2.12.35,9.4,9.4,0,0,0-2,1,14,14,0,0,0-1.87,1.42q-.9.8-1.74,1.68a16.58,16.58,0,0,0-1.52,1.79q-.84,1.13-1.57,2.34t-1.49,2.67a29.19,29.19,0,0,0-1.26,2.77,21.34,21.34,0,0,0-.85,2.64,9.73,9.73,0,0,0-.31,2.31,5.79,5.79,0,0,0,.08.83,5.38,5.38,0,0,0,.25,1,2.57,2.57,0,0,0,.47.83.94.94,0,0,0,.74.35,9.78,9.78,0,0,0,3.61-.91,18.93,18.93,0,0,0,5.36-3.44,21.74,21.74,0,0,0,4.1-5,19.24,19.24,0,0,0,2.47-9.52Z" transform="translate(0)"/><path d="M265.61,146.3a5.1,5.1,0,0,1-.09.9,8.16,8.16,0,0,1-.27,1,8.7,8.7,0,0,1-.38,1,3.43,3.43,0,0,1-.42.77q-.19.25-.55.68l-.8.93a11.94,11.94,0,0,1-1,1c-.39.36-.71.72-1.08,1q-1.95,1.79-3.82,3.47a31.36,31.36,0,0,1-3.85,3,19.78,19.78,0,0,1-4.13,2.06,13.24,13.24,0,0,1-4.67.74,6.87,6.87,0,0,1-2.34-.42,8.29,8.29,0,0,1-2.22-1.21,8.09,8.09,0,0,1-1.79-1.88,7.2,7.2,0,0,1-1-2.39l-1.92,2-2.09,2.06q-1.09,1.06-2.25,2a26.75,26.75,0,0,1-2.39,1.79q-.69.44-1.65.94t-2,.93a16.38,16.38,0,0,1-2.11.69,7.83,7.83,0,0,1-1.9.27,3.27,3.27,0,0,1-2.22-.8,6.66,6.66,0,0,1-1.54-2,10.06,10.06,0,0,1-.91-2.48,10.78,10.78,0,0,1-.3-2.36,15.94,15.94,0,0,1,.6-4.24,27,27,0,0,1,1.56-4.23,34.35,34.35,0,0,1,2.14-3.91q1.18-1.85,2.31-3.3a25.71,25.71,0,0,1,2.83-3,29,29,0,0,1,3.39-2.67,21.17,21.17,0,0,1,3.46-1.9,7.83,7.83,0,0,1,3-.72h1.4a13.44,13.44,0,0,1,1.46.08,10.57,10.57,0,0,1,1.41.25,4.48,4.48,0,0,1,1.26.52,2.88,2.88,0,0,1,.66.72,9.29,9.29,0,0,1,.71,1.2,10.14,10.14,0,0,1,.55,1.32,3.55,3.55,0,0,1,.22,1,11.12,11.12,0,0,1-.47,2.77q-.5,2.17-.93,3.94a15.71,15.71,0,0,0-.42,3.66,7.34,7.34,0,0,0,.35,2.18,7.13,7.13,0,0,0,1,2,5.45,5.45,0,0,0,1.57,1.49,3.84,3.84,0,0,0,2.09.58,10.6,10.6,0,0,0,3.93-.8,21.33,21.33,0,0,0,4.07-2.2,38.32,38.32,0,0,0,4.1-3.24q2-1.84,4-3.91l.55-.64c.26-.3.53-.61.82-.91s.56-.58.83-.82a1.17,1.17,0,0,1,.6-.36Q265.61,145,265.61,146.3Zm-28-2.61q0-.54-.06-1.32a2.61,2.61,0,0,0-.39-1.27,1,1,0,0,0-.85-.49h-1a6.57,6.57,0,0,0-2.12.35,9.4,9.4,0,0,0-2,1,14,14,0,0,0-1.87,1.42q-.9.8-1.74,1.68a16.58,16.58,0,0,0-1.52,1.79q-.84,1.13-1.57,2.34T223,151.86a29.19,29.19,0,0,0-1.26,2.77,21.34,21.34,0,0,0-.85,2.64,9.73,9.73,0,0,0-.31,2.31,5.79,5.79,0,0,0,.08.83,5.38,5.38,0,0,0,.25,1,2.57,2.57,0,0,0,.47.83.94.94,0,0,0,.74.35,9.78,9.78,0,0,0,3.61-.91,18.93,18.93,0,0,0,5.36-3.44,21.74,21.74,0,0,0,4.1-5,19.24,19.24,0,0,0,2.45-9.54Z" transform="translate(0)"/><path d="M315.3,145.23a3.8,3.8,0,0,1-.21,1.21,10,10,0,0,1-.5,1.22,11.5,11.5,0,0,1-.67,1.2L313.2,150a28.32,28.32,0,0,1-2.14,2.88q-1.23,1.46-2.62,2.85t-2.88,2.61a34.64,34.64,0,0,1-2.89,2.17l-2.15,1.41a16,16,0,0,1-2.06,1.13,12.53,12.53,0,0,1-2.17.75,10.2,10.2,0,0,1-2.48.28,6.54,6.54,0,0,1-4.24-1.32,6.1,6.1,0,0,1-1.43-1.71,13.72,13.72,0,0,1-1.07-2.34,24.35,24.35,0,0,1-.79-2.73q-.33-1.44-.55-2.86-.28-1.76-.53-3.16a16.16,16.16,0,0,0-.58-2.36,4.22,4.22,0,0,0-.8-1.48,1.58,1.58,0,0,0-1.23-.52,4.91,4.91,0,0,0-1.13.13,3.56,3.56,0,0,0-1.12.5,8.06,8.06,0,0,0-1.27,1.07q-.69.69-1.62,1.82t-2.12,2.77q-1.19,1.63-2.8,3.9-.79,1.1-1.85,2.42t-2.18,2.51a26.81,26.81,0,0,1-2.18,2.11,5.67,5.67,0,0,1-1.89,1.16q-2.77-.6-2.77-6.88A50.49,50.49,0,0,1,262,152q.19-1.54.44-3.22t.63-3.36q.38-1.68.86-3.27a20.21,20.21,0,0,1,1.15-2.94,4,4,0,0,1,.66-1,2.48,2.48,0,0,1,.71-.54,2.39,2.39,0,0,1,.75-.22,6.36,6.36,0,0,1,.8,0q.49,0,.9.69a3.92,3.92,0,0,1,.39,1.92,7.57,7.57,0,0,1-.13,1.41,11.75,11.75,0,0,1-.35,1.35l-.47,1.49q-.25.8-.5,1.84l-.42,1.88q-.24,1-.44,2.11t-.35,2.09a13.52,13.52,0,0,0-.14,1.84,3.85,3.85,0,0,0,.19,1.16q.88-.09,2.89-2.64l2.28-2.83q1.24-1.54,2.69-3.39,1.07-1.38,2.12-2.58a16.94,16.94,0,0,1,2.18-2.09,9.84,9.84,0,0,1,2.4-1.41,7.39,7.39,0,0,1,2.81-.52,4.89,4.89,0,0,1,2.72.71,5.17,5.17,0,0,1,1.74,2,11.2,11.2,0,0,1,1,3q.36,1.73.58,3.8.19,1.76.36,3.49a12.57,12.57,0,0,0,.68,3.1,5.43,5.43,0,0,0,1.45,2.21,3.9,3.9,0,0,0,2.7.85,7.21,7.21,0,0,0,2.83-.63,18.2,18.2,0,0,0,3.11-1.74,37.84,37.84,0,0,0,3.38-2.62q1.74-1.51,3.6-3.3a20.29,20.29,0,0,0,1.59-1.74q.86-1.05,1.7-2a22.57,22.57,0,0,1,1.56-1.67,2,2,0,0,1,1.16-.69,1.79,1.79,0,0,1,.61.19A.65.65,0,0,1,315.3,145.23Z" transform="translate(0)"/><path d="M356.63,146.3a5.06,5.06,0,0,1-.09.9,8.23,8.23,0,0,1-.27,1,8.69,8.69,0,0,1-.38,1,3.43,3.43,0,0,1-.42.77q-.19.25-.55.68l-.8.93a11.94,11.94,0,0,1-1,1c-.39.36-.71.72-1.08,1q-2,1.79-3.82,3.47a31.4,31.4,0,0,1-3.85,3,19.77,19.77,0,0,1-4.13,2.06,13.24,13.24,0,0,1-4.67.74,6.86,6.86,0,0,1-2.34-.42,8.29,8.29,0,0,1-2.22-1.21,8.09,8.09,0,0,1-1.79-1.88,7.19,7.19,0,0,1-1.06-2.39l-1.92,2-2.09,2.06q-1.09,1.06-2.25,2a26.74,26.74,0,0,1-2.39,1.79q-.69.44-1.65.94t-2,.93a16.4,16.4,0,0,1-2.11.69,7.83,7.83,0,0,1-1.9.27,3.27,3.27,0,0,1-2.22-.8,6.65,6.65,0,0,1-1.54-2,10,10,0,0,1-.91-2.48,10.78,10.78,0,0,1-.3-2.36,15.93,15.93,0,0,1,.6-4.24,27,27,0,0,1,1.56-4.23,34.35,34.35,0,0,1,2.14-3.91q1.18-1.85,2.31-3.3a25.72,25.72,0,0,1,2.83-3,28.94,28.94,0,0,1,3.39-2.67,21.15,21.15,0,0,1,3.46-1.9,7.83,7.83,0,0,1,3-.72h1.4a13.44,13.44,0,0,1,1.46.08,10.57,10.57,0,0,1,1.41.25,4.49,4.49,0,0,1,1.26.52,2.88,2.88,0,0,1,.66.72,9.35,9.35,0,0,1,.71,1.2,10.22,10.22,0,0,1,.55,1.32,3.55,3.55,0,0,1,.22,1,11.12,11.12,0,0,1-.47,2.77q-.5,2.17-.93,3.94a15.68,15.68,0,0,0-.42,3.66,7.32,7.32,0,0,0,.35,2.18,7.12,7.12,0,0,0,1,2,5.45,5.45,0,0,0,1.57,1.49,3.85,3.85,0,0,0,2.09.58,10.6,10.6,0,0,0,3.93-.8,21.33,21.33,0,0,0,4.07-2.2,38.32,38.32,0,0,0,4.1-3.24q2-1.84,4-3.91l.55-.64c.26-.3.53-.61.82-.91s.56-.58.83-.82a1.17,1.17,0,0,1,.6-.36Q356.63,145,356.63,146.3Zm-28-2.61q0-.54-.06-1.32a2.61,2.61,0,0,0-.41-1.27,1,1,0,0,0-.85-.49h-1a6.57,6.57,0,0,0-2.12.35,9.41,9.41,0,0,0-2,1,14,14,0,0,0-1.87,1.42q-.9.8-1.74,1.68a16.52,16.52,0,0,0-1.52,1.79q-.84,1.13-1.57,2.34T314,151.86a29.06,29.06,0,0,0-1.26,2.77,21.26,21.26,0,0,0-.85,2.64,9.71,9.71,0,0,0-.31,2.31,5.8,5.8,0,0,0,.08.83,5.38,5.38,0,0,0,.25,1,2.57,2.57,0,0,0,.47.83.94.94,0,0,0,.74.35,9.77,9.77,0,0,0,3.61-.91,18.93,18.93,0,0,0,5.36-3.44,21.71,21.71,0,0,0,4.1-5,19.23,19.23,0,0,0,2.47-9.54Z" transform="translate(0)"/><path d="M368.16,170.48v-30H407v30Z" transform="translate(0)"/><path d="M424.32,170.48V0h40.29V170.48Z" transform="translate(0)"/><path d="M482.05,170.48V0h40.29V89.8L547,46.9h43.19L551.74,99.1,590,170.51H548.27l-20.56-55.12-5.38,7.2v47.92Z" transform="translate(0)"/></svg>